# xmcd
#
# Track frame offsets: 
#        150
#        22102
#        37832
#        55950
#        70480
#        82680
#        101940
#        123337
#
# Disc length: 1910 seconds
#
# Revision: 7
# Processed by: cddbd v1.5.2PL0 Copyright (c) Steve Scherf et al.
# Submitted via: ExactAudioCopy v1.0b4
#
DISCID=65077408
DTITLE=Marvin Gaye - Let's Get It On - From SACD
DYEAR=2003
DGENRE=Soul
TTITLE0=Let's Get It On
TTITLE1=Please Stay (Once You Go Away)
TTITLE2=If I Should Die Tonight
TTITLE3=Keep Gettin' It On
TTITLE4=Come Get To This
TTITLE5=Distant Lover
TTITLE6=You Sure Love To Ball
TTITLE7=Just To Keep You Satisfied
EXTD=
EXTT0=
EXTT1=
EXTT2=
EXTT3=
EXTT4=
EXTT5=
EXTT6=
EXTT7=
PLAYORDER=
